<svg width="144" height="144" viewBox="0 0 144 144" fill="none" xmlns="http://www.w3.org/2000/svg">
<path d="M53.086 111.318C53.086 111.318 47.593 114.512 56.9952 115.593C68.3856 116.893 74.2072 116.706 86.7595 114.331C86.7595 114.331 90.0596 116.4 94.6685 118.192C66.5294 130.252 30.9843 117.494 53.086 111.318Z" fill="#5382A1"/>
<path d="M49.6475 95.5806C49.6475 95.5806 43.4866 100.141 52.8957 101.114C65.0633 102.37 74.6724 102.472 91.2997 99.2705C91.2997 99.2705 93.5995 101.602 97.2158 102.877C63.194 112.825 25.2998 103.662 49.6475 95.5806Z" fill="#5382A1"/>
<path d="M78.6349 68.8848C85.5683 76.8674 76.8132 84.0507 76.8132 84.0507C76.8132 84.0507 94.4184 74.9624 86.3331 63.5816C78.7817 52.9683 72.9908 47.695 104.34 29.5133C104.34 29.5133 55.1318 41.8034 78.6349 68.8848Z" fill="#E76F00"/>
<path d="M115.851 122.958C115.851 122.958 119.916 126.308 111.374 128.899C95.1318 133.819 43.7721 135.305 29.5046 129.095C24.3758 126.864 33.9938 123.767 37.0192 123.118C40.1744 122.433 41.9776 122.561 41.9776 122.561C36.2738 118.543 5.11084 130.451 26.1483 133.861C83.5205 143.165 130.732 129.671 115.851 122.958Z" fill="#5382A1"/>
<path d="M55.7277 79.2749C55.7277 79.2749 29.6029 85.4799 46.4762 87.7332C53.6007 88.6871 67.8031 88.4713 81.0323 87.3629C91.8439 86.4508 102.7 84.5118 102.7 84.5118C102.7 84.5118 98.8878 86.1444 96.1297 88.0277C69.6004 95.0049 18.3507 91.759 33.1049 84.6222C45.5824 78.5907 55.7277 79.2749 55.7277 79.2749Z" fill="#5382A1"/>
<path d="M102.592 105.471C129.561 91.4568 117.092 77.9897 108.388 79.804C106.255 80.248 105.304 80.6328 105.304 80.6328C105.304 80.6328 106.096 79.3922 107.608 78.8552C124.826 72.802 138.068 96.7084 102.05 106.177C102.05 106.177 102.468 105.804 102.592 105.471Z" fill="#5382A1"/>
</svg>
