<svg width="144" height="120" viewBox="0 0 144 120" fill="none" xmlns="http://www.w3.org/2000/svg">
<g clip-path="url(#clip0_431_57)">
<path d="M71.3904 0.765991C34.9222 0.765993 37.1995 13.8352 37.1995 13.8352L37.2402 27.3747H72.0409V31.4399H23.4175C23.4175 31.4399 0.081543 29.2529 0.081543 59.6612C0.0815404 90.0696 20.4497 88.9913 20.4497 88.9913H32.6055V74.8806C32.6055 74.8806 31.9503 58.0486 52.6484 58.0486H87.1645C87.1645 58.0486 106.557 58.3077 106.557 42.5605V16.5229C106.557 16.5229 109.501 0.765991 71.3904 0.765991ZM52.2012 9.87073C55.6637 9.87073 58.4621 12.1833 58.4621 15.0446C58.4621 17.9059 55.6637 20.2186 52.2012 20.2186C48.7388 20.2186 45.9404 17.9059 45.9404 15.0446C45.9404 12.1833 48.7388 9.87073 52.2012 9.87073Z" fill="url(#paint0_linear_431_57)"/>
<path d="M72.4263 118.861C108.895 118.861 106.617 105.792 106.617 105.792L106.577 92.2527H71.7759V88.1875H120.399C120.399 88.1875 143.735 90.3745 143.735 59.9661C143.735 29.5577 123.367 30.6361 123.367 30.6361H111.211V44.7467C111.211 44.7467 111.866 61.5788 91.1683 61.5788H56.6522C56.6522 61.5788 37.2598 61.3197 37.2598 77.0669V103.104C37.2598 103.104 34.3155 118.861 72.4263 118.861ZM91.6155 109.757C88.1531 109.757 85.3546 107.444 85.3546 104.583C85.3546 101.721 88.1531 99.4088 91.6155 99.4088C95.0779 99.4088 97.8764 101.721 97.8764 104.583C97.8764 107.444 95.0779 109.757 91.6155 109.757Z" fill="url(#paint1_linear_431_57)"/>
</g>
<defs>
<linearGradient id="paint0_linear_431_57" x1="1380.62" y1="1063" x2="7169.2" y2="7997.79" gradientUnits="userSpaceOnUse">
<stop stop-color="#387EB8"/>
<stop offset="1" stop-color="#366994"/>
</linearGradient>
<linearGradient id="paint1_linear_431_57" x1="2074.83" y1="1846.33" x2="8345.77" y2="9019.84" gradientUnits="userSpaceOnUse">
<stop stop-color="#FFE052"/>
<stop offset="1" stop-color="#FFC331"/>
</linearGradient>
<clipPath id="clip0_431_57">
<rect width="144" height="119" fill="white" transform="translate(0 0.5)"/>
</clipPath>
</defs>
</svg>
