<svg width="165" height="138" viewBox="0 0 165 138" fill="none" xmlns="http://www.w3.org/2000/svg">
<g clip-path="url(#clip0_431_117)">
<path d="M72.7055 137.912C57.2606 136.981 41.9954 133.729 32.6334 129.376C27.3008 126.897 23.2381 123.85 21.6438 121.134L20.6953 119.519V68.8369V18.1553L21.4459 16.8807C24.8 11.1852 35.5046 6.05071 50.4476 2.96995C55.5201 1.92411 62.8429 0.882614 68.8169 0.357425C74.9171 -0.179 91.0863 -0.097387 97.1714 0.501336C113.344 2.0905 127.106 5.64826 135.587 10.4327C138.858 12.2778 142.214 15.2301 143.351 17.2622L144.326 19.0045L144.243 69.5329L144.159 120.061L143.377 121.391C142.946 122.122 141.646 123.561 140.488 124.588C133.436 130.84 118.309 135.465 98.4678 137.436C94.4237 137.838 76.8546 138.162 72.7055 137.912ZM101.168 94.4844C101.109 94.3548 98.7998 92.6346 96.0373 90.6613C93.2747 88.6881 90.8954 86.9809 90.75 86.8676C90.6045 86.7542 91.1149 86.353 91.8842 85.9758C92.6535 85.5987 94.1273 84.5495 95.1594 83.6443C98.1777 80.9972 99.6018 77.7274 99.6018 73.4443C99.6018 69.2278 98.0659 65.8258 94.9896 63.2288C91.8892 60.6112 88.3293 59.4865 83.1452 59.4865C75.1543 59.4865 69.0173 63.3862 67.0585 69.7085C66.3847 71.8832 66.3883 76.2775 67.0656 78.2058C68.8321 83.2356 73.6431 86.8886 79.6306 87.7464C81.6568 88.0367 81.9313 88.1618 83.3127 89.425C84.1336 90.1757 85.8183 91.6741 87.0564 92.7548L89.3075 94.7197H95.2919C98.5832 94.7197 101.227 94.6139 101.168 94.4844ZM80.6455 80.4705C79.2048 79.8423 78.6602 79.3547 77.8386 77.9579C77.2041 76.879 77.0956 76.2654 77.0885 73.7154C77.0814 71.1244 77.18 70.5645 77.8425 69.4394C78.9264 67.5983 80.4202 66.7267 82.7309 66.5869C85.9473 66.3917 87.8039 67.712 88.7769 70.8849C89.9699 74.7749 88.658 78.9106 85.7957 80.2832C84.294 81.0033 82.0541 81.0848 80.6455 80.4705ZM54.1203 87.6912C60.3945 86.696 63.9562 83.6444 63.9562 79.2635C63.9562 75.3771 61.6567 73.1126 55.3016 70.7397C51.6636 69.3814 50.3459 68.5288 50.3459 67.5327C50.3459 66.707 51.5964 65.8023 53.0522 65.575C54.4736 65.353 58.2436 65.9006 60.4698 66.6527L62.3359 67.2832V63.8285V60.3736L60.3105 59.9978C59.0588 59.7656 56.4285 59.6263 53.4244 59.6334C49.1691 59.6334 48.3359 59.7201 46.7345 60.252C42.0569 61.8051 39.8372 64.4507 39.8727 68.4304C39.9059 72.156 42.2559 74.48 48.1044 76.5706C51.5553 77.8042 52.9384 78.7435 52.9384 79.8535C52.9384 82.2123 48.2392 82.5026 43.2638 80.4512C41.9013 79.8894 40.6771 79.3839 40.5434 79.3279C40.4098 79.2719 40.3004 80.8858 40.3004 82.9143C40.3004 86.5858 40.3051 86.6036 41.0999 86.8566C44.093 87.8084 50.7083 88.2324 54.1203 87.6912ZM125.85 84.2853V81.1686H120.179H114.508V70.463V59.7575H109.485H104.463V73.5798V87.4021H115.156H125.85V84.2853ZM90.8524 29.6668C100.834 29.0878 108.316 27.9946 114.899 26.1535C121.459 24.3193 125.333 22.0999 126.2 19.6805C126.534 18.7482 126.51 18.3946 126.043 17.3724C123.951 12.7898 112.261 9.269 94.3988 7.84149C86.758 7.23074 72.8622 7.42873 65.5768 8.2518C54.4605 9.508 45.439 11.8413 41.4276 14.4978C33.3132 19.8719 41.8943 25.7828 61.8499 28.5648C70.5026 29.7712 81.7128 30.1971 90.8524 29.6668Z" fill="#00BCF2"/>
</g>
<defs>
<clipPath id="clip0_431_117">
<rect width="165" height="138" fill="white"/>
</clipPath>
</defs>
</svg>
