<svg width="144" height="144" viewBox="0 0 144 144" fill="none" xmlns="http://www.w3.org/2000/svg">
<path fill-rule="evenodd" clip-rule="evenodd" d="M68.709 9.85798C70.746 8.71498 73.254 8.71498 75.288 9.85798C85.353 15.507 115.641 32.511 125.709 38.16C127.746 39.3 129 41.412 129 43.698C129 54.996 129 89.001 129 100.299C129 102.585 127.746 104.697 125.709 105.84C115.644 111.489 85.356 128.493 75.288 134.142C73.251 135.285 70.743 135.285 68.709 134.142C58.644 128.493 28.356 111.489 18.288 105.84C16.254 104.697 15 102.588 15 100.302C15 89.004 15 54.999 15 43.701C15 41.415 16.254 39.303 18.291 38.16C28.353 32.511 58.647 15.507 68.709 9.85798Z" fill="#00549D"/>
<path fill-rule="evenodd" clip-rule="evenodd" d="M15.912 103.212C15.114 102.144 15 101.13 15 99.765C15 88.533 15 54.723 15 43.488C15 41.214 16.251 39.114 18.282 37.98C28.311 32.364 58.497 15.459 68.526 9.83999C70.557 8.70299 73.308 8.72699 75.339 9.86399C85.368 15.48 115.452 32.241 125.481 37.857C126.291 38.313 126.909 38.862 127.461 39.585L15.912 103.212Z" fill="#0086D4"/>
<path fill-rule="evenodd" clip-rule="evenodd" d="M72 30C95.181 30 114 48.819 114 72C114 95.181 95.181 114 72 114C48.819 114 30 95.181 30 72C30 48.819 48.819 30 72 30ZM72 51C83.589 51 93 60.408 93 72C93 83.589 83.589 93 72 93C60.411 93 51 83.589 51 72C51 60.408 60.408 51 72 51Z" fill="white"/>
<path fill-rule="evenodd" clip-rule="evenodd" d="M127.455 39.615C129.003 41.064 128.973 43.248 128.973 44.967C128.973 56.352 128.877 88.734 129 100.119C129.012 101.307 128.619 102.558 128.031 103.5L70.7788 72L127.455 39.615Z" fill="#0075C0"/>
<path d="M99 63H93V81H99V63Z" fill="white"/>
<path d="M120 63H114V81H120V63Z" fill="white"/>
<path d="M105 69H87V75H105V69Z" fill="white"/>
<path d="M126 69H108V75H126V69Z" fill="white"/>
</svg>
