<svg width="126" height="120" viewBox="0 0 126 120" fill="none" xmlns="http://www.w3.org/2000/svg">
<g clip-path="url(#clip0_431_61)">
<path d="M107.1 0H18.9C8.46182 0 0 8.05888 0 18V102C0 111.941 8.46182 120 18.9 120H107.1C117.538 120 126 111.941 126 102V18C126 8.05888 117.538 0 107.1 0Z" fill="#F7DF1E"/>
<path d="M79.7344 86.7188C82.1953 90.7031 85.6406 93.5156 91.3008 93.5156C96.2227 93.5156 99.4219 91.1719 99.4219 87.8906C99.4219 84.1406 96.2227 82.7344 90.8086 80.3906L87.8555 79.2188C79.2422 75.7031 73.582 71.4844 73.582 62.3438C73.582 53.9062 80.2266 47.3438 90.8086 47.3438C98.4375 47.3438 103.852 49.9219 107.543 56.4844L98.4375 62.1094C96.4688 58.5938 94.2539 57.1875 90.8086 57.1875C87.3633 57.1875 85.1484 59.2969 85.1484 62.1094C85.1484 65.3906 87.3633 66.7969 92.5312 68.9062L95.4844 70.0781C105.574 74.2969 111.234 78.2812 111.234 87.8906C111.234 97.9688 102.867 103.594 91.5469 103.594C80.4727 103.594 73.3359 98.6719 69.8906 92.1094L79.7344 86.7188ZM37.8984 87.6562C39.8672 90.7031 41.3438 93.5156 45.5273 93.5156C49.4648 93.5156 51.9258 92.1094 51.9258 86.4844V47.5781H63.7383V86.0156C63.7383 97.7344 56.6016 102.891 46.0195 102.891C36.4219 102.891 31.0078 98.2031 28.3008 92.5781L37.8984 87.6562Z" fill="black"/>
</g>
<defs>
<clipPath id="clip0_431_61">
<rect width="126" height="120" fill="white"/>
</clipPath>
</defs>
</svg>
