<svg width="199" height="184" viewBox="0 0 199 184" fill="none" xmlns="http://www.w3.org/2000/svg">
<g clip-path="url(#clip0_431_64)">
<path d="M99.5031 104.745C107.193 104.745 113.427 98.9808 113.427 91.8706C113.427 84.7603 107.193 78.9963 99.5031 78.9963C91.8132 78.9963 85.5793 84.7603 85.5793 91.8706C85.5793 98.9808 91.8132 104.745 99.5031 104.745Z" fill="#00D8FF"/>
<path fill-rule="evenodd" clip-rule="evenodd" d="M100.526 64.7336C124.266 64.8831 150.167 66.4845 167.947 81.1441C168.469 81.5753 168.973 82.0238 169.464 82.4867C173.659 86.4398 175.851 92.8223 172.465 98.075C165.518 108.859 149.984 113.563 134.944 116.458C112.451 120.787 88.9313 120.822 66.4474 117.01C53.5093 114.813 40.2789 110.964 31.0845 102.911C27.5056 99.777 24.446 95.6542 24.9248 91.0657C25.7022 83.6425 33.4041 78.8786 39.8871 75.6528C57.8935 66.6943 79.8333 64.6905 100.526 64.7336ZM98.8036 68.106C76.3414 68.2468 52.0292 69.5722 34.6851 82.8518C34.0788 83.3147 33.4943 83.8006 32.9315 84.3095C32.5677 84.6372 32.2163 84.9793 31.8774 85.3301C28.8333 88.4926 27.7854 93.5727 30.6585 97.3706C33.5502 101.191 37.9407 103.949 42.4617 106.197C59.3705 114.603 79.3513 116.095 98.8316 116.159C118.554 116.225 138.893 114.563 156.315 106.234C163.255 102.914 171.065 98.0376 170.789 91.7586C170.534 85.9971 164.458 82.4378 159.909 79.8963C158.678 79.2092 157.412 78.5738 156.128 77.9758C138.834 69.9632 118.567 68.0657 98.8036 68.106Z" fill="#00D8FF"/>
<path fill-rule="evenodd" clip-rule="evenodd" d="M130.951 30.7711C139.636 30.9753 144.135 40.6295 144.729 47.7595C144.847 49.1769 144.891 50.6 144.872 52.0231C144.853 53.5641 144.763 55.1051 144.617 56.6404C142.786 75.6499 133.399 93.7538 122.345 110.472C111.533 126.825 98.3496 143.132 80.4148 150.71C74.4852 153.217 67.4331 154.764 62.1845 151.967C54.9894 148.134 54.2027 139.17 54.3364 132.371C54.3706 130.7 54.4888 129.03 54.6754 127.365C57.4396 102.755 70.9312 79.442 87.8151 59.3573C97.6656 47.6388 109.385 36.0151 123.983 31.8061C126.281 31.142 128.106 30.7395 130.951 30.7711ZM130.535 34.1406C120.339 34.2901 111.185 41.2764 103.079 48.5358C81.7673 67.6171 66.0619 92.9948 59.7436 119.609C59.2555 121.67 58.845 123.746 58.5434 125.836C58.3102 127.455 58.1392 129.082 58.049 130.715C57.9775 132.014 57.9526 133.317 57.9962 134.619C58.0273 135.637 58.0988 136.655 58.22 137.667C58.3102 138.44 58.4315 139.21 58.5838 139.975C58.6989 140.542 58.8326 141.105 58.9881 141.666C59.1155 142.12 59.2586 142.571 59.4203 143.02C60.692 146.565 63.9693 149.951 68.369 150.064C78.6331 150.322 88.297 143.402 96.6519 135.881C111.319 122.682 122.248 106.096 130.787 88.6621C137.677 74.5861 143.98 59.2854 140.46 43.792C140.326 43.2055 140.171 42.6248 139.993 42.0498C139.847 41.5811 139.683 41.1183 139.502 40.6611C138.134 37.214 134.916 34.132 130.535 34.1406Z" fill="#00D8FF"/>
<path fill-rule="evenodd" clip-rule="evenodd" d="M68.7452 30.8976C79.827 31.096 89.7801 38.0506 98.617 45.839C114.742 60.0501 126.636 78.1281 135.659 97.1548C142.649 111.895 149.079 128.441 143.364 143.994C141.564 148.896 137.008 153.381 130.936 153.496C119.801 153.703 109.481 146.217 100.526 138.158C78.0609 117.935 61.3822 91.2381 55.6672 62.9251C55.2567 60.9011 54.9302 58.8598 54.7064 56.81C54.5229 55.1367 54.4079 53.4548 54.3768 51.773C54.3519 50.416 54.383 49.059 54.4856 47.7077C54.554 46.805 54.6535 45.908 54.7872 45.0138C54.9147 44.1743 55.0764 43.3377 55.2785 42.5097C55.4122 41.9606 55.5614 41.4172 55.7325 40.8767C57.4084 35.5781 61.7678 30.8573 68.7452 30.8976ZM68.3254 34.27C61.8362 34.4022 58.8667 41.4776 58.2697 46.4427C58.1484 47.4605 58.0738 48.4868 58.0396 49.5132C57.9961 50.8242 58.0147 52.1381 58.0863 53.4491C59.1061 72.4212 68.2788 90.7637 79.3482 107.559C89.7708 123.372 102.358 139.121 119.671 147.217C124.67 149.555 130.746 151.392 135.065 149.184C140.482 146.412 141.147 139.808 141.436 134.886C141.514 133.547 141.523 132.201 141.477 130.858C141.421 129.174 141.278 127.492 141.063 125.819C139.067 110.187 131.579 95.3953 122.979 81.4171C112.276 64.0291 99.1642 46.6986 80.6075 37.6452C76.7643 35.7707 72.6039 34.2383 68.3254 34.27Z" fill="#00D8FF"/>
</g>
<defs>
<clipPath id="clip0_431_64">
<rect width="199" height="184" fill="white"/>
</clipPath>
</defs>
</svg>
